<svg xmlns="http://www.w3.org/2000/svg" xmlns:xlink="http://www.w3.org/1999/xlink" width="0" height="0" style="display:none;"><symbol viewBox="0 0 24 24" id="github-fill"><path d="M12.001 2C6.47598 2 2.00098 6.475 2.00098 12C2.00098 16.425 4.86348 20.1625 8.83848 21.4875C9.33848 21.575 9.52598 21.275 9.52598 21.0125C9.52598 20.775 9.51348 19.9875 9.51348 19.15C7.00098 19.6125 6.35098 18.5375 6.15098 17.975C6.03848 17.6875 5.55098 16.8 5.12598 16.5625C4.77598 16.375 4.27598 15.9125 5.11348 15.9C5.90098 15.8875 6.46348 16.625 6.65098 16.925C7.55098 18.4375 8.98848 18.0125 9.56348 17.75C9.65098 17.1 9.91348 16.6625 10.201 16.4125C7.97598 16.1625 5.65098 15.3 5.65098 11.475C5.65098 10.3875 6.03848 9.4875 6.67598 8.7875C6.57598 8.5375 6.22598 7.5125 6.77598 6.1375C6.77598 6.1375 7.61348 5.875 9.52598 7.1625C10.326 6.9375 11.176 6.825 12.026 6.825C12.876 6.825 13.726 6.9375 14.526 7.1625C16.4385 5.8625 17.276 6.1375 17.276 6.1375C17.826 7.5125 17.476 8.5375 17.376 8.7875C18.0135 9.4875 18.401 10.375 18.401 11.475C18.401 15.3125 16.0635 16.1625 13.8385 16.4125C14.201 16.725 14.5135 17.325 14.5135 18.2625C14.5135 19.6 14.501 20.675 14.501 21.0125C14.501 21.275 14.6885 21.5875 15.1885 21.4875C19.259 20.1133 21.9999 16.2963 22.001 12C22.001 6.475 17.526 2 12.001 2Z"></path></symbol><symbol viewBox="0 0 24 24" id="linkedin-box-fill"><path d="M18.3362 18.339H15.6707V14.1622C15.6707 13.1662 15.6505 11.8845 14.2817 11.8845C12.892 11.8845 12.6797 12.9683 12.6797 14.0887V18.339H10.0142V9.75H12.5747V10.9207H12.6092C12.967 10.2457 13.837 9.53325 15.1367 9.53325C17.8375 9.53325 18.337 11.3108 18.337 13.6245V18.339H18.3362ZM7.00373 8.57475C6.14573 8.57475 5.45648 7.88025 5.45648 7.026C5.45648 6.1725 6.14648 5.47875 7.00373 5.47875C7.85873 5.47875 8.55173 6.1725 8.55173 7.026C8.55173 7.88025 7.85798 8.57475 7.00373 8.57475ZM8.34023 18.339H5.66723V9.75H8.34023V18.339ZM19.6697 3H4.32923C3.59498 3 3.00098 3.5805 3.00098 4.29675V19.7033C3.00098 20.4202 3.59498 21 4.32923 21H19.6675C20.401 21 21.001 20.4202 21.001 19.7033V4.29675C21.001 3.5805 20.401 3 19.6675 3H19.6697Z"></path></symbol><symbol viewBox="0 0 24 24" id="stack-overflow-fill"><path d="M18.001 20.0026V14.6693H20.001V22.0026H4.00098V14.6693H6.00098V20.0026H18.001ZM7.59977 14.7359L7.913 12.7566L16.75 14.456L16.6367 16.0421L7.59977 14.7359ZM8.79937 10.2041L9.53245 8.60463L17.5298 12.3367L16.7967 13.9362L8.79937 10.2041ZM11.0653 6.27208L12.1982 4.9392L18.9959 10.604L17.863 11.9368L11.0653 6.27208ZM15.3972 2.14014L20.6621 9.20443L19.2625 10.2707L13.9976 3.20645L15.3972 2.14014ZM7.33319 18.6679V16.6686H16.6634V18.6679H7.33319Z"></path></symbol><symbol viewBox="0 0 24 24" id="npmjs-fill"><path d="M20.001 3C20.5533 3 21.001 3.44772 21.001 4V20C21.001 20.5523 20.5533 21 20.001 21H4.00098C3.44869 21 3.00098 20.5523 3.00098 20V4C3.00098 3.44772 3.44869 3 4.00098 3H20.001ZM17.001 7H7.00098V17H12.001V9.5H14.501V17H17.001V7Z"></path></symbol><symbol viewBox="0 0 24 24" id="pages-fill"><path d="M20 22H4C3.44772 22 3 21.5523 3 21V8H21V21C21 21.5523 20.5523 22 20 22ZM21 6H3V3C3 2.44772 3.44772 2 4 2H20C20.5523 2 21 2.44772 21 3V6ZM7 11V15H11V11H7ZM7 17V19H17V17H7ZM13 12V14H17V12H13Z"></path></symbol><symbol viewBox="0 0 24 24" id="global-fill"><path d="M2.04932 12.9999H7.52725C7.70624 16.2688 8.7574 19.3053 10.452 21.8809C5.98761 21.1871 2.5001 17.5402 2.04932 12.9999ZM2.04932 10.9999C2.5001 6.45968 5.98761 2.81276 10.452 2.11902C8.7574 4.69456 7.70624 7.73111 7.52725 10.9999H2.04932ZM21.9506 10.9999H16.4726C16.2936 7.73111 15.2425 4.69456 13.5479 2.11902C18.0123 2.81276 21.4998 6.45968 21.9506 10.9999ZM21.9506 12.9999C21.4998 17.5402 18.0123 21.1871 13.5479 21.8809C15.2425 19.3053 16.2936 16.2688 16.4726 12.9999H21.9506ZM9.53068 12.9999H14.4692C14.2976 15.7828 13.4146 18.3732 11.9999 20.5915C10.5852 18.3732 9.70229 15.7828 9.53068 12.9999ZM9.53068 10.9999C9.70229 8.21709 10.5852 5.62672 11.9999 3.40841C13.4146 5.62672 14.2976 8.21709 14.4692 10.9999H9.53068Z"></path></symbol><symbol viewBox="0 0 24 24" id="gitlab-fill"><path d="M21.6634 9.98681L21.6354 9.91518L18.9164 2.8208C18.8612 2.68166 18.7634 2.56353 18.6371 2.48326C18.5098 2.40292 18.3607 2.36406 18.2104 2.37206C18.0601 2.38006 17.9159 2.43452 17.7979 2.52792C17.6809 2.62169 17.5966 2.75 17.5569 2.89453L15.7187 8.52037H8.28157L6.44336 2.89453C6.40366 2.75 6.31934 2.62169 6.20241 2.52792C6.08487 2.43389 5.94083 2.37903 5.79052 2.37102C5.64021 2.36301 5.49116 2.40226 5.36429 2.48326C5.2374 2.5632 5.13921 2.6814 5.08388 2.8208L2.36183 9.9245L2.33379 9.99512C1.94304 11.0182 1.895 12.1406 2.19691 13.1933C2.49882 14.2461 3.13436 15.1724 4.00794 15.8329L4.01832 15.8401L4.04221 15.8588L8.18917 18.9631L10.2393 20.5157L11.4856 21.4597C11.6319 21.5704 11.8104 21.6302 11.9939 21.6302C12.1774 21.6302 12.3559 21.5704 12.5023 21.4597L13.7486 20.5157L15.7997 18.9631L19.9706 15.8401L19.9819 15.8318C20.8585 15.1719 21.4966 14.2449 21.7999 13.1904C22.1033 12.1361 22.0553 11.0116 21.6634 9.98681Z"></path></symbol><symbol viewBox="0 0 24 24" id="booklet-fill"><path d="M8 2V22H4V18H2V16H4V13H2V11H4V8H2V6H4V2H8ZM20.0049 2C21.1068 2 22 2.89821 22 3.9908V20.0092C22 21.1087 21.1074 22 20.0049 22H10V2H20.0049Z"></path></symbol><symbol viewBox="0 0 24 24" id="send-plane-fill"><path d="M1.94607 9.31543C1.42353 9.14125 1.4194 8.86022 1.95682 8.68108L21.043 2.31901C21.5715 2.14285 21.8746 2.43866 21.7265 2.95694L16.2733 22.0432C16.1223 22.5716 15.8177 22.59 15.5944 22.0876L11.9999 14L17.9999 6.00005L9.99992 12L1.94607 9.31543Z"></path></symbol><symbol viewBox="0 0 24 24" id="download-2-fill"><path d="M4 19H20V12H22V20C22 20.5523 21.5523 21 21 21H3C2.44772 21 2 20.5523 2 20V12H4V19ZM14 9H19L12 16L5 9H10V3H14V9Z"></path></symbol><symbol viewBox="0 0 24 24" id="edit-fill"><path d="M7.24264 17.9967H3V13.754L14.435 2.319C14.8256 1.92848 15.4587 1.92848 15.8492 2.319L18.6777 5.14743C19.0682 5.53795 19.0682 6.17112 18.6777 6.56164L7.24264 17.9967ZM3 19.9967H21V21.9967H3V19.9967Z"></path></symbol></svg>