<svg xmlns="http://www.w3.org/2000/svg" xmlns:xlink="http://www.w3.org/1999/xlink" width="0" height="0" style="display:none;"><symbol viewBox="0 0 24 24" id="translate-2"><path d="M18.5 10L22.9 21H20.745L19.544 18H15.454L14.255 21H12.101L16.5 10H18.5ZM10 2V4H16V6L14.0322 6.0006C13.2425 8.36616 11.9988 10.5057 10.4115 12.301C11.1344 12.9457 11.917 13.5176 12.7475 14.0079L11.9969 15.8855C10.9237 15.2781 9.91944 14.5524 8.99961 13.7249C7.21403 15.332 5.10914 16.5553 2.79891 17.2734L2.26257 15.3442C4.2385 14.7203 6.04543 13.6737 7.59042 12.3021C6.46277 11.0281 5.50873 9.57985 4.76742 8.00028L7.00684 8.00037C7.57018 9.03885 8.23979 10.0033 8.99967 10.877C10.2283 9.46508 11.2205 7.81616 11.9095 6.00101L2 6V4H8V2H10ZM17.5 12.8852L16.253 16H18.745L17.5 12.8852Z"></path></symbol><symbol viewBox="0 0 24 24" id="github-fill"><path d="M12.001 2C6.47598 2 2.00098 6.475 2.00098 12C2.00098 16.425 4.86348 20.1625 8.83848 21.4875C9.33848 21.575 9.52598 21.275 9.52598 21.0125C9.52598 20.775 9.51348 19.9875 9.51348 19.15C7.00098 19.6125 6.35098 18.5375 6.15098 17.975C6.03848 17.6875 5.55098 16.8 5.12598 16.5625C4.77598 16.375 4.27598 15.9125 5.11348 15.9C5.90098 15.8875 6.46348 16.625 6.65098 16.925C7.55098 18.4375 8.98848 18.0125 9.56348 17.75C9.65098 17.1 9.91348 16.6625 10.201 16.4125C7.97598 16.1625 5.65098 15.3 5.65098 11.475C5.65098 10.3875 6.03848 9.4875 6.67598 8.7875C6.57598 8.5375 6.22598 7.5125 6.77598 6.1375C6.77598 6.1375 7.61348 5.875 9.52598 7.1625C10.326 6.9375 11.176 6.825 12.026 6.825C12.876 6.825 13.726 6.9375 14.526 7.1625C16.4385 5.8625 17.276 6.1375 17.276 6.1375C17.826 7.5125 17.476 8.5375 17.376 8.7875C18.0135 9.4875 18.401 10.375 18.401 11.475C18.401 15.3125 16.0635 16.1625 13.8385 16.4125C14.201 16.725 14.5135 17.325 14.5135 18.2625C14.5135 19.6 14.501 20.675 14.501 21.0125C14.501 21.275 14.6885 21.5875 15.1885 21.4875C19.259 20.1133 21.9999 16.2963 22.001 12C22.001 6.475 17.526 2 12.001 2Z"></path></symbol><symbol viewBox="0 0 24 24" id="linkedin-box-fill"><path d="M18.3362 18.339H15.6707V14.1622C15.6707 13.1662 15.6505 11.8845 14.2817 11.8845C12.892 11.8845 12.6797 12.9683 12.6797 14.0887V18.339H10.0142V9.75H12.5747V10.9207H12.6092C12.967 10.2457 13.837 9.53325 15.1367 9.53325C17.8375 9.53325 18.337 11.3108 18.337 13.6245V18.339H18.3362ZM7.00373 8.57475C6.14573 8.57475 5.45648 7.88025 5.45648 7.026C5.45648 6.1725 6.14648 5.47875 7.00373 5.47875C7.85873 5.47875 8.55173 6.1725 8.55173 7.026C8.55173 7.88025 7.85798 8.57475 7.00373 8.57475ZM8.34023 18.339H5.66723V9.75H8.34023V18.339ZM19.6697 3H4.32923C3.59498 3 3.00098 3.5805 3.00098 4.29675V19.7033C3.00098 20.4202 3.59498 21 4.32923 21H19.6675C20.401 21 21.001 20.4202 21.001 19.7033V4.29675C21.001 3.5805 20.401 3 19.6675 3H19.6697Z"></path></symbol><symbol viewBox="0 0 24 24" id="stack-overflow-fill"><path d="M18.001 20.0026V14.6693H20.001V22.0026H4.00098V14.6693H6.00098V20.0026H18.001ZM7.59977 14.7359L7.913 12.7566L16.75 14.456L16.6367 16.0421L7.59977 14.7359ZM8.79937 10.2041L9.53245 8.60463L17.5298 12.3367L16.7967 13.9362L8.79937 10.2041ZM11.0653 6.27208L12.1982 4.9392L18.9959 10.604L17.863 11.9368L11.0653 6.27208ZM15.3972 2.14014L20.6621 9.20443L19.2625 10.2707L13.9976 3.20645L15.3972 2.14014ZM7.33319 18.6679V16.6686H16.6634V18.6679H7.33319Z"></path></symbol><symbol viewBox="0 0 24 24" id="npmjs-fill"><path d="M20.001 3C20.5533 3 21.001 3.44772 21.001 4V20C21.001 20.5523 20.5533 21 20.001 21H4.00098C3.44869 21 3.00098 20.5523 3.00098 20V4C3.00098 3.44772 3.44869 3 4.00098 3H20.001ZM17.001 7H7.00098V17H12.001V9.5H14.501V17H17.001V7Z"></path></symbol><symbol viewBox="0 0 24 24" id="pages-fill"><path d="M20 22H4C3.44772 22 3 21.5523 3 21V8H21V21C21 21.5523 20.5523 22 20 22ZM21 6H3V3C3 2.44772 3.44772 2 4 2H20C20.5523 2 21 2.44772 21 3V6ZM7 11V15H11V11H7ZM7 17V19H17V17H7ZM13 12V14H17V12H13Z"></path></symbol><symbol viewBox="0 0 24 24" id="gitlab-fill"><path d="M21.6634 9.98681L21.6354 9.91518L18.9164 2.8208C18.8612 2.68166 18.7634 2.56353 18.6371 2.48326C18.5098 2.40292 18.3607 2.36406 18.2104 2.37206C18.0601 2.38006 17.9159 2.43452 17.7979 2.52792C17.6809 2.62169 17.5966 2.75 17.5569 2.89453L15.7187 8.52037H8.28157L6.44336 2.89453C6.40366 2.75 6.31934 2.62169 6.20241 2.52792C6.08487 2.43389 5.94083 2.37903 5.79052 2.37102C5.64021 2.36301 5.49116 2.40226 5.36429 2.48326C5.2374 2.5632 5.13921 2.6814 5.08388 2.8208L2.36183 9.9245L2.33379 9.99512C1.94304 11.0182 1.895 12.1406 2.19691 13.1933C2.49882 14.2461 3.13436 15.1724 4.00794 15.8329L4.01832 15.8401L4.04221 15.8588L8.18917 18.9631L10.2393 20.5157L11.4856 21.4597C11.6319 21.5704 11.8104 21.6302 11.9939 21.6302C12.1774 21.6302 12.3559 21.5704 12.5023 21.4597L13.7486 20.5157L15.7997 18.9631L19.9706 15.8401L19.9819 15.8318C20.8585 15.1719 21.4966 14.2449 21.7999 13.1904C22.1033 12.1361 22.0553 11.0116 21.6634 9.98681Z"></path></symbol><symbol viewBox="0 0 24 24" id="booklet-fill"><path d="M8 2V22H4V18H2V16H4V13H2V11H4V8H2V6H4V2H8ZM20.0049 2C21.1068 2 22 2.89821 22 3.9908V20.0092C22 21.1087 21.1074 22 20.0049 22H10V2H20.0049Z"></path></symbol><symbol viewBox="0 0 24 24" id="send-plane-fill"><path d="M1.94607 9.31543C1.42353 9.14125 1.4194 8.86022 1.95682 8.68108L21.043 2.31901C21.5715 2.14285 21.8746 2.43866 21.7265 2.95694L16.2733 22.0432C16.1223 22.5716 15.8177 22.59 15.5944 22.0876L11.9999 14L17.9999 6.00005L9.99992 12L1.94607 9.31543Z"></path></symbol><symbol viewBox="0 0 24 24" id="download-2-fill"><path d="M4 19H20V12H22V20C22 20.5523 21.5523 21 21 21H3C2.44772 21 2 20.5523 2 20V12H4V19ZM14 9H19L12 16L5 9H10V3H14V9Z"></path></symbol><symbol viewBox="0 0 24 24" id="edit-fill"><path d="M7.24264 17.9967H3V13.754L14.435 2.319C14.8256 1.92848 15.4587 1.92848 15.8492 2.319L18.6777 5.14743C19.0682 5.53795 19.0682 6.17112 18.6777 6.56164L7.24264 17.9967ZM3 19.9967H21V21.9967H3V19.9967Z"></path></symbol><symbol viewBox="0 0 24 24" id="earth-fill"><path d="M12 2C17.5228 2 22 6.47715 22 12C22 17.5228 17.5228 22 12 22C6.47715 22 2 17.5228 2 12C2 6.47715 6.47715 2 12 2ZM16.0043 12.8777C15.6589 12.3533 15.4097 11.9746 14.4622 12.1248C12.6717 12.409 12.4732 12.7224 12.3877 13.2375L12.3636 13.3943L12.3393 13.5597C12.2416 14.2428 12.2453 14.5012 12.5589 14.8308C13.8241 16.1582 14.582 17.115 14.8116 17.6746C14.9237 17.9484 15.2119 18.7751 15.0136 19.5927C16.2372 19.1066 17.3156 18.3332 18.1653 17.3559C18.2755 16.9821 18.3551 16.5166 18.3551 15.9518V15.8472C18.3551 14.9247 18.3551 14.504 17.7031 14.1314C17.428 13.9751 17.2227 13.881 17.0582 13.8064C16.691 13.6394 16.4479 13.5297 16.1198 13.0499C16.0807 12.9928 16.0425 12.9358 16.0043 12.8777ZM12 3.83333C9.68259 3.83333 7.59062 4.79858 6.1042 6.34896C6.28116 6.47186 6.43537 6.64453 6.54129 6.88256C6.74529 7.34029 6.74529 7.8112 6.74529 8.22764C6.74488 8.55621 6.74442 8.8672 6.84992 9.09302C6.99443 9.40134 7.6164 9.53227 8.16548 9.64736C8.36166 9.68867 8.56395 9.73083 8.74797 9.78176C9.25405 9.92233 9.64554 10.3765 9.95938 10.7412C10.0896 10.8931 10.2819 11.1163 10.3783 11.1717C10.4286 11.1356 10.59 10.9608 10.6699 10.6735C10.7307 10.4547 10.7134 10.2597 10.6239 10.1543C10.0648 9.49445 10.0952 8.2232 10.268 7.75495C10.5402 7.01606 11.3905 7.07058 12.012 7.11097C12.2438 7.12589 12.4626 7.14023 12.6257 7.11976C13.2482 7.04166 13.4396 6.09538 13.575 5.91C13.8671 5.50981 14.7607 4.9071 15.3158 4.53454C14.3025 4.08382 13.1805 3.83333 12 3.83333Z"></path></symbol><symbol viewBox="0 0 24 24" id="sun-fill"><path d="M12 18C8.68629 18 6 15.3137 6 12C6 8.68629 8.68629 6 12 6C15.3137 6 18 8.68629 18 12C18 15.3137 15.3137 18 12 18ZM11 1H13V4H11V1ZM11 20H13V23H11V20ZM3.51472 4.92893L4.92893 3.51472L7.05025 5.63604L5.63604 7.05025L3.51472 4.92893ZM16.9497 18.364L18.364 16.9497L20.4853 19.0711L19.0711 20.4853L16.9497 18.364ZM19.0711 3.51472L20.4853 4.92893L18.364 7.05025L16.9497 5.63604L19.0711 3.51472ZM5.63604 16.9497L7.05025 18.364L4.92893 20.4853L3.51472 19.0711L5.63604 16.9497ZM23 11V13H20V11H23ZM4 11V13H1V11H4Z"></path></symbol><symbol viewBox="0 0 24 24" id="moon-fill"><path d="M11.3807 2.01886C9.91573 3.38768 9 5.3369 9 7.49999C9 11.6421 12.3579 15 16.5 15C18.6631 15 20.6123 14.0843 21.9811 12.6193C21.6613 17.8537 17.3149 22 12 22C6.47715 22 2 17.5228 2 12C2 6.68514 6.14629 2.33869 11.3807 2.01886Z"></path></symbol><symbol viewBox="0 0 24 24" id="links-fill"><path d="M13.0607 8.11097L14.4749 9.52518C17.2086 12.2589 17.2086 16.691 14.4749 19.4247L14.1214 19.7782C11.3877 22.5119 6.95555 22.5119 4.22188 19.7782C1.48821 17.0446 1.48821 12.6124 4.22188 9.87874L5.6361 11.293C3.68348 13.2456 3.68348 16.4114 5.6361 18.364C7.58872 20.3166 10.7545 20.3166 12.7072 18.364L13.0607 18.0105C15.0133 16.0578 15.0133 12.892 13.0607 10.9394L11.6465 9.52518L13.0607 8.11097ZM19.7782 14.1214L18.364 12.7072C20.3166 10.7545 20.3166 7.58872 18.364 5.6361C16.4114 3.68348 13.2456 3.68348 11.293 5.6361L10.9394 5.98965C8.98678 7.94227 8.98678 11.1081 10.9394 13.0607L12.3536 14.4749L10.9394 15.8891L9.52518 14.4749C6.79151 11.7413 6.79151 7.30911 9.52518 4.57544L9.87874 4.22188C12.6124 1.48821 17.0446 1.48821 19.7782 4.22188C22.5119 6.95555 22.5119 11.3877 19.7782 14.1214Z"></path></symbol></svg>